<?xml version="1.0" encoding="UTF-8" standalone="no"?>
<!-- Created with Inkscape (http://www.inkscape.org/) -->

<svg
   width="210mm"
   height="297mm"
   viewBox="0 0 210 297"
   version="1.1"
   id="svg1"
   xml:space="preserve"
   xmlns="http://www.w3.org/2000/svg"
   xmlns:svg="http://www.w3.org/2000/svg"><defs
     id="defs1" /><g
     id="layer1"><g
       style="fill:#ffffff"
       id="g1"
       transform="matrix(8.8194444,0,0,8.8194444,-0.79374947,42.597917)"><path
         fill-rule="evenodd"
         clip-rule="evenodd"
         d="m 20,1 c 1.6569,0 3,1.34315 3,3 v 16 c 0,1.6569 -1.3431,3 -3,3 H 4 C 2.34315,23 1,21.6569 1,20 V 4 C 1,2.34315 2.34315,1 4,1 Z m 0,2 c 0.5523,0 1,0.44772 1,1 v 16 c 0,0.5523 -0.4477,1 -1,1 h -5 v -7.0001 h 2.0762 c 0.4304,0 0.8125,-0.2754 0.9487,-0.6838 l 0.443,-1.329 c 0.1619,-0.4857 -0.1996,-0.9872 -0.7115,-0.9872 H 15 V 8.99992 c 0,-0.5 0.5,-1 1,-1 h 2 c 0.5523,0 1,-0.44772 1,-1 V 6.31393 C 19,5.99091 18.7937,5.7013 18.4813,5.61887 17.1705,5.27295 16,5.27295 16,5.27295 c -2.5,0 -4,1.72697 -4,3.22697 v 2.49998 h -2 c -0.55228,0 -1,0.4477 -1,1 v 1 c 0,0.5523 0.44771,1 1,1 h 2 V 21 H 4 C 3.44772,21 3,20.5523 3,20 V 4 C 3,3.44772 3.44772,3 4,3 Z"
         fill="#0f0f0f"
         id="path1"
         style="fill:#ffffff" /></g></g></svg>
