<?xml version="1.0" encoding="UTF-8" standalone="no"?>
<!-- Created with Inkscape (http://www.inkscape.org/) -->

<svg
   version="1.1"
   id="svg1"
   width="408.53571"
   height="424.32501"
   viewBox="0 0 408.5357 424.32501"
   xml:space="preserve"
   xmlns="http://www.w3.org/2000/svg"
   xmlns:svg="http://www.w3.org/2000/svg"><defs
     id="defs1" /><g
     id="g1"
     transform="translate(81.743226,439.56188)" /><g
     id="layer1"
     transform="translate(93.405498,449.28044)"
     style="fill:#d40000"><path
       style="fill:#791f2b;stroke-width:1.28131;fill-opacity:1"
       d="m -25.429995,-219.7261 8.496937,60.26487 17.64748781,-47.11617 32.68053019,-99.71096 7.189716,-22.46236 1.960832,-28.48884 -33.9877522,31.77602 -18.9547068,79.44005 -15.686654,-55.88197 -17.647487,-39.44609 -49.674406,-107.92889 22.876371,110.12034 z"
       id="path915" /><path
       id="path922"
       style="fill:#791f2b;stroke-width:1.28131;fill-opacity:1"
       d="m 269.58047,-420.44847 -72.36735,68.86827 8.08547,23.67018 14.26025,40.29498 -36.25883,10.58524 -11.40932,-57.36884 15.07483,-40.98004 -3.66551,-2.73108 -30.55694,39.6122 -20.36946,68.29777 -19.14762,2.05061 18.33306,-46.4445 -8.96289,-42.68468 -27.70323,94.24996 -11.409302,2.39199 5.297371,-78.54393 -7.741051,-8.87831 -40.331642,90.49471 -9.777451,2.04832 -9.780183,20.49001 16.296661,-2.04831 -23.22042,46.78359 13.44297,5.46446 24.379391,-53.28595 12.346868,-1.42741 -17.879315,58.1616 h 23.838174 l 10.641212,-60.30156 12.770548,-1.06998 -19.155822,72.43334 129.837541,-44.95981 -1.27651,-3.92479 -102.59352,23.55103 9.79112,-51.38199 17.02922,-4.99706 -10.21754,52.45427 17.02922,-11.06182 13.62064,-44.60239 25.5411,-8.56443 5.10877,40.32018 10.21753,4.63964 -3.40585,-49.24204 35.33222,-9.98953 15.74997,67.796 22.98809,-13.55921 -10.64122,-52.81169 66.40849,27.12069 -42.57032,-32.82801 -37.03513,-20.69622 47.67908,-112.39839 z m -24.3548,50.53426 2.0364,3.07247 -4.4828,19.46586 -13.44297,20.14863 -4.89009,-3.41615 -4.88737,-8.53694 20.36947,-25.6108 z m -82.70515,59.76084 6.11194,34.83279 -13.85299,2.3897 z m -94.516261,28.68556 2.443679,23.2211 -12.62841,2.04832 z" /><path
       id="path925"
       style="fill:#791f2b;stroke-width:0.868619;fill-opacity:1"
       d="m 8.6978605,-183.84437 -1.9958871,-0.32738 5.4245006,12.00633 -17.9911904,40.69289 -16.3474836,1.36752 0.475971,4.64321 13.59737,-1.46808 -30.524612,49.758726 5.016158,0.716948 36.0763972,-47.178774 48.6710498,-5.27797 z m 8.3166865,23.10962 22.223514,28.1743 -32.8552269,0.75682 z" /><path
       id="path926"
       style="fill:#791f2b;stroke-width:0.868619;fill-opacity:1"
       d="m 76.876207,-132.80768 -9.762184,-2.76354 -31.915293,23.96577 -9.700933,-2.23279 -23.3603864,1.13133 22.1918544,8.20465 -31.524983,15.854196 1.845274,5.84452 32.482145,-8.608405 13.105059,-9.370231 9.881759,3.821646 -10.051551,25.816273 13.142092,-4.431499 24.93742,-52.98324 z m -13.360569,12.89584 -8.105154,15.2525 -9.762183,-2.76356 z" /><path
       style="fill:#791f2b;stroke-width:0.868619;fill-opacity:1"
       d="m 86.171459,-137.95498 -6.648422,-30.4291 -5.799195,8.09328 z"
       id="path927" /><path
       id="path930"
       style="fill:#791f2b;stroke-width:1.09978;fill-opacity:1"
       d="m 202.7281,-207.25278 21.34241,60.3532 -6.85432,4.78783 -17.88398,-61.28883 -4.54833,-0.12524 5.45564,38.39092 -24.31564,-30.55371 -2.66779,2.10679 7.20864,73.39568 -22.07304,13.09182 4.6714,-25.28955 11.15978,-10.82037 -0.9112,-1.49715 -12.30917,3.16603 -5.15301,-42.18302 -39.36459,102.331103 -20.254487,10.56918 41.608887,-97.293543 -16.19385,11.24468 -85.69717,131.911525 149.97348,-82.577735 5.81853,46.712803 3.09245,-0.0622 -0.48071,-54.605363 16.13213,-10.48581 20.85583,57.227293 3.57819,-0.61171 -16.85275,-63.146023 7.76139,-5.12935 18.12967,34.35424 18.56323,-64.71632 z m 17.09898,25.18158 29.28888,16.1802 -12.31221,34.41824 -4.06261,-9.86653 10.00623,-11.12166 -11.40042,0.98361 z m -65.07165,28.54698 2.30483,13.47328 -7.70132,0.693 z m 31.55842,-10.20604 c 1.35955,-0.49301 3.25228,1.50975 3.25227,1.50974 l 17.70391,26.79404 -18.98199,11.19227 c 0,0 -3.33313,-28.16063 -3.33251,-35.5146 2.3e-4,-2.64285 0.59567,-3.70486 1.35832,-3.98145 z m -36.65145,38.84755 c 2.23543,-0.89986 3.99948,-0.28544 3.99948,-0.28544 l 1.57565,18.89486 -29.35142,17.670303 c 0,0 14.43359,-22.349393 18.31536,-30.429403 1.69828,-3.53501 3.72226,-5.15039 5.46093,-5.85032 z" /></g><g
     id="layer2"
     transform="translate(81.743226,439.56188)" /></svg>
