<?xml version="1.0" encoding="UTF-8" standalone="no"?>
<!-- Created with Inkscape (http://www.inkscape.org/) -->

<svg
   width="77.819481mm"
   height="85.385612mm"
   viewBox="0 0 77.819481 85.385612"
   version="1.1"
   id="svg1"
   xml:space="preserve"
   inkscape:version="1.4.2 (ebf0e940d0, 2025-05-08)"
   sodipodi:docname="valar_pa_land-text.svg"
   xmlns:inkscape="http://www.inkscape.org/namespaces/inkscape"
   xmlns:sodipodi="http://sodipodi.sourceforge.net/DTD/sodipodi-0.dtd"
   xmlns="http://www.w3.org/2000/svg"
   xmlns:svg="http://www.w3.org/2000/svg"><sodipodi:namedview
     id="namedview1"
     pagecolor="#ffffff"
     bordercolor="#000000"
     borderopacity="0.25"
     inkscape:showpageshadow="2"
     inkscape:pageopacity="0.0"
     inkscape:pagecheckerboard="0"
     inkscape:deskcolor="#d1d1d1"
     inkscape:document-units="mm"
     inkscape:zoom="1.2090332"
     inkscape:cx="104.62905"
     inkscape:cy="209.67165"
     inkscape:window-width="1920"
     inkscape:window-height="1002"
     inkscape:window-x="0"
     inkscape:window-y="0"
     inkscape:window-maximized="1"
     inkscape:current-layer="layer1" /><defs
     id="defs1" /><g
     inkscape:label="Layer 1"
     inkscape:groupmode="layer"
     id="layer1"
     transform="translate(-72.83646,-8.38748)" /><g
     inkscape:groupmode="layer"
     id="layer3"
     inkscape:label="Layer 2"
     transform="translate(-72.83646,-8.38748)"><path
       style="fill:#791f2b;stroke-width:0.264583"
       d="m 73.80911,9.748373 c 0,0 -1.572318,-3.2344833 -0.718775,0.26954 0.853546,3.504024 2.156323,10.871458 2.156323,10.871458 l 2.201246,12.4887 c 0,0 8.466735,14.855896 8.399086,26.35628 -0.06765,11.500385 -0.1353,11.568033 -0.1353,11.568033 0,0 2.570676,-1.217686 4.938401,-8.86206 2.367727,-7.644373 9.876799,-35.448244 8.05027,-33.148169 -1.826532,2.300079 -6.426687,7.03553 -6.426687,7.03553 l -3.653062,17.927072 c 0,0 -3.517765,-14.882852 -6.359035,-21.377185 C 79.420304,26.383236 73.80911,9.748373 73.80911,9.748373 Z"
       id="path1" /><path
       id="path5"
       style="fill:#791f2b;stroke-width:0.264583"
       d="m 142.99696,13.114962 c -0.79011,0.0079 -1.78439,0.764294 -1.78439,0.764294 0,0 -0.0523,0.578732 -4.25814,5.94124 -4.20589,5.362508 -8.72763,8.884729 -8.72763,8.884729 l 4.36407,14.036869 -6.94014,2.208134 c 0,0 -1.5772,-11.092869 -1.78749,-12.091769 -0.2103,-0.998897 0.15813,-1.9451 0.15813,-1.9451 0,0 1.78717,-5.309825 2.26033,-7.728211 0.47317,-2.418386 -1.20923,0.210323 -1.20923,0.210323 0,0 -3.31206,5.783115 -4.15324,6.782015 -0.84117,0.998897 -1.41955,2.733683 -1.41955,2.733683 l -3.41736,13.56403 -3.57498,0.47284 c 0,0 1.78764,-5.52004 2.83911,-8.096147 1.05147,-2.576108 0.52555,-2.996716 0.52555,-2.996716 0,0 -0.52575,-3.574947 -0.99891,-7.149951 -0.47316,-3.575005 -1.10381,-0.420647 -1.10381,-0.420647 l -4.52117,19.978109 -2.31355,0.367936 0.57826,-13.406416 c 0,0 0.31591,-4.153327 -0.42013,-5.78311 -0.73603,-1.629783 -1.05162,0 -1.05162,0 l -7.308078,19.925399 -1.577165,0.315743 -1.682068,4.994527 2.52336,-0.683679 -4.994527,12.249898 c 1.261766,2.05037 3.364652,-0.10542 3.364652,-0.10542 0,0 1.787506,-4.836731 3.785296,-10.146667 1.9978,-5.309933 2.99672,-1.472262 2.99672,-1.472262 0,0 -2.62835,10.725048 -3.259233,12.565125 -0.630883,1.840076 0.893573,0.578387 1.524453,-0.367937 0.63089,-0.946325 1.20902,-0.473184 1.52446,0.788583 0.31544,1.261766 1.57716,-0.157613 1.57716,-0.157613 0,0 0.0526,-0.78851 0.42065,-5.940723 0.36801,-5.152215 1.68258,-8.30647 1.68258,-8.30647 l 2.26085,-0.315743 c 0,0 -2.7864,11.461308 -3.7853,14.247709 -0.9989,2.786401 1.62936,1.629358 1.62936,1.629358 0,0 18.45346,-7.307685 21.76559,-9.147762 3.31214,-1.840076 -0.47284,-0.946195 -0.47284,-0.946195 l -17.87539,4.889624 1.89291,-11.566219 3.25923,-1.209229 c 0,0 0.42056,1.156431 -1.20923,8.096147 -1.62978,6.939719 2.41846,0.946195 2.41846,0.946195 l 2.62878,-9.778731 4.88962,-1.945101 v 2.208134 c 0,1.366915 0.36794,2.313037 0.36794,2.313037 0,0 1.10389,2.997053 1.73477,4.521688 0.63089,1.524635 0.9462,-0.263033 0.9462,-0.263033 l -1.0511,-9.673311 7.09724,-2.208134 c 0,0 2.15538,13.61615 2.73369,14.983064 0.57831,1.366912 1.57716,-0.315226 1.57716,-0.315226 0,0 0.21047,-2.155394 1.26194,-1.945101 1.05148,0.210294 1.20923,-0.263033 1.20923,-0.263033 0,0 -1.6297,-8.674614 -2.15543,-11.145573 -0.52574,-2.47096 1.41956,-0.893485 1.41956,-0.893485 0,0 5.94042,3.469541 9.41027,5.257043 3.46986,1.787503 0.68368,-0.683162 0.68368,-0.683162 0,0 -0.31538,-0.578631 -3.36465,-3.312459 -3.04927,-2.733826 -9.5157,-6.834209 -9.5157,-6.834209 0,0 0.4206,-4.889479 1.99781,-7.623307 1.57721,-2.733826 3.62717,-7.991243 3.62717,-7.991243 0,0 0.84117,-3.575225 1.78749,-8.254277 0.44359,-2.193305 -0.0945,-2.76906 -0.79168,-2.762105 z m -5.53972,10.758516 c 0.42591,0.01234 0.31058,1.444356 0.31058,1.444356 0,0 -0.76641,2.890523 -1.11466,4.004924 -0.34825,1.114398 -2.22881,4.422469 -2.22881,4.422469 -1.63673,-0.905449 -1.56683,-2.994649 -1.56683,-2.994649 0,0 2.08919,-3.03007 3.62149,-5.746419 0.47884,-0.84886 0.78464,-1.136292 0.97823,-1.130681 z m -15.81299,12.941846 c 0.31373,0.01325 0.62632,1.352889 0.62632,1.352889 l 0.45269,7.278625 -2.15904,0.278536 c 0,0 0.27858,-4.144085 0.62683,-7.417635 0.11699,-1.099708 0.27701,-1.476725 0.43822,-1.491898 0.005,-4.69e-4 0.01,-7.27e-4 0.015,-5.17e-4 z m -17.43149,6.61355 c 0.24318,0.0049 0.22738,1.04283 0.22738,1.04283 l -0.10439,4.770768 -2.2288,0.348299 c 0,1e-6 0.6964,-2.960031 1.5322,-5.18883 0.27424,-0.731325 0.45485,-0.975467 0.57361,-0.973067 z" /><path
       id="path8"
       style="fill:#791f2b;stroke-width:0.114735"
       d="m 91.23675,67.241741 -0.368392,0.160187 0.702093,1.235104 -1.21405,6.895527 -1.879698,0.722012 0.184826,0.471054 1.458363,-0.452187 -2.532301,8.385373 0.618411,0.05004 3.141708,-8.221919 5.34513,-2.380036 z m 1.135447,3.056512 2.774864,3.683543 -3.464678,1.087863 z" /><path
       id="path9"
       style="fill:#791f2b;stroke-width:0.114735"
       d="m 95.982594,75.051826 c -0.423126,-0.03265 -0.941508,0.385965 -0.900197,0.863237 0.06957,0.803828 -1.507042,3.868954 -1.507042,3.868954 0,0 -0.269668,1.156508 -1.044496,1.39787 -0.77484,0.241363 -0.218511,0.514511 -1.948637,1.590787 -1.730127,1.076286 -0.401409,0.575489 0.968593,0.116207 1.370011,-0.459232 0.679846,0.397196 0.679846,0.397196 0,0 -0.687424,0.818667 -1.818746,3.311756 -1.131319,2.49309 0.765031,0.441931 0.765031,0.441931 2.084256,-1.617759 3.148961,-4.952388 3.148961,-4.952388 l 1.169378,-0.171445 0.241554,4.238522 1.030251,-1.779033 c 0,0 -0.281849,-7.092656 -0.259293,-8.497184 0.0091,-0.570587 -0.235685,-0.804083 -0.525194,-0.826433 z m -0.375451,2.653999 -0.130369,2.764261 -1.089957,0.291795 z" /><path
       style="fill:#791f2b;stroke-width:0.114735"
       d="m 97.562491,73.867026 -1.947127,-2.462384 0.40516,-1.621929 z"
       id="path10" /><path
       style="fill:#791f2b;stroke-width:0.264583"
       d="m 117.45702,67.22655 c 0,0 -0.60028,-0.324978 -1.99836,1.288703 -1.39809,1.613671 -7.00517,7.950287 -7.00517,7.950287 0,0 -3.4312,3.90628 -4.29253,4.373513 -0.86135,0.467238 -4.05652,4.983791 -7.875934,7.059318 -3.819403,2.075495 -9.799248,4.460385 -9.799248,4.460385 0,0 -2.116471,1.303435 0.290113,0.723486 2.406595,-0.579944 11.132242,-2.427584 11.132242,-2.427584 0,0 3.587507,-0.08745 7.485347,-1.213167 3.89783,-1.125727 13.42602,-4.23289 13.42602,-4.23289 0,0 15.16853,-5.649617 17.69824,-6.524782 2.52971,-0.875166 6.99376,-2.91111 6.99376,-2.91111 0,0 2.48061,-1.268875 -0.36405,-0.354433 -2.84467,0.91444 -38.82569,10.558434 -38.82569,10.558434 0,0 5.78851,-4.24017 9.16091,-8.938765 3.3724,-4.698587 6.27225,-9.018391 6.65633,-9.785961 0.38409,-0.767571 1.10777,-1.697425 -0.0833,-0.98916 -1.19111,0.708267 -2.59863,0.963726 -2.59863,0.963726 z"
       id="path14" /><path
       id="path16"
       style="fill:#791f2b;stroke-width:0.264583"
       d="m 125.89667,63.64374 c -0.11572,0.01667 -0.33559,0.317862 -0.73144,1.167095 -1.23584,2.65129 -13.03448,17.44815 -13.03448,17.44815 0,0 -1.85339,2.796413 0.81847,0.73794 2.67185,-2.058462 6.27992,-5.70945 6.27992,-5.70945 0,0 3.11364,-2.340633 2.69381,-0.06352 -0.41983,2.277125 -0.45949,3.235525 -0.45949,3.235525 0,0 -0.19009,1.385963 0.72955,0.204288 0.91966,-1.181643 1.75869,-4.101069 1.75869,-4.101069 0,0 0.7299,-1.611987 1.77781,-1.946962 1.04792,-0.334978 3.18591,-1.396408 1.46191,-1.385768 -1.72401,0.01064 -2.62985,1.122669 -2.18191,-1.65739 0.44792,-2.78006 0.91033,-6.719932 0.91033,-6.719932 0,0 0.22243,-1.244293 -0.0232,-1.208931 z m -2.18356,6.757866 c 0.24567,-0.02257 0.1345,0.589409 0.1345,0.589409 l -0.53756,2.609393 -1.17073,-0.285656 c 0,0 0.26326,-1.531008 1.09345,-2.519879 0.23347,-0.278124 0.3844,-0.384758 0.48051,-0.393726 z" /><path
       style="fill:#791f2b;stroke-width:0.264583"
       d="m 132.76292,63.840643 c 0,0 -1.78687,-4.499166 -2.52881,0.292632 -0.74195,4.791762 -2.01918,14.758163 -2.01918,14.758163 l -0.54016,11.872232 c 0,0 -0.6668,5.75859 0.86619,0.02822 1.53299,-5.730372 2.79467,-19.644917 2.79467,-19.644917 0,0 0.50697,-3.945203 1.75484,-0.309599 1.24787,3.635599 3.9221,20.895988 3.9221,20.895988 0,0 0.82007,4.574315 0.72928,0.02257 -0.0908,-4.551712 0.0591,-28.293701 0.0591,-28.293701 0,0 -1.18007,-6.005033 -1.78549,0.06372 -0.60541,6.068729 -0.1088,8.413197 -1.35402,5.163181 -1.24519,-3.249994 -1.89852,-4.84846 -1.89852,-4.84846 z"
       id="path17" /><path
       id="path19"
       style="fill:#791f2b;stroke-width:0.264583"
       d="m 139.03384,60.701735 c -0.31018,0.05815 -0.49187,0.594481 -0.32519,2.09497 0.48479,4.365054 3.14035,22.805434 3.14035,22.805434 0,0 0.66114,1.729436 1.70368,-0.390538 1.04253,-2.119962 7.10326,-12.588304 7.10326,-12.588304 L 140.68643,62.22359 c 0,0 -1.06045,-1.632861 -1.65259,-1.521855 z m 1.96201,6.146196 6.35892,5.741709 -4.2976,6.743371 -0.42637,-2.947489 c -0.0104,-0.01189 -0.004,-0.02861 -0.004,-0.02861 l 0.004,0.02861 c 0.0338,0.03698 0.23759,0.02822 1.34163,-0.671383 1.45888,-0.92442 -0.10574,-0.610692 -0.10574,-0.610692 l -1.4918,0.423478 z" /></g><g
     inkscape:groupmode="layer"
     id="layer4"
     inkscape:label="Layer 3"
     transform="translate(-72.83646,-8.38748)" /></svg>
